<svg xmlns="http://www.w3.org/2000/svg" viewBox="0 0 160 35">
    <path d="M7.53906 0.383179H14.7741V2.31566H12.3721V29.7035H10.2176V2.31566H7.53906V0.383179Z" fill="white"/>
    <path d="M25.0865 4.41467C25.1253 4.41467 25.1447 4.59237 25.1447 4.94777C25.1447 5.30317 25.1399 5.65857 25.1302 6.01396V6.5304C24.3635 6.5304 23.6841 6.7081 23.0921 7.0635C22.5098 7.40779 21.9373 8.03529 21.3744 8.94599V29.7035H19.2053V4.71454H21.3744V7.49664C21.6267 6.51929 22.0683 5.76407 22.6991 5.23098C23.3396 4.68678 24.1354 4.41467 25.0865 4.41467Z" fill="white"/>
    <path d="M29.7073 4.71457H31.8909V29.7035H29.7073V4.71457ZM29.7073 0.0166626H31.8763V2.41559H29.7073V0.0166626Z" fill="white"/>
    <path d="M44.4161 12.028C44.4161 10.0733 44.3433 8.85716 44.1977 8.3796C44.0619 7.89093 43.8969 7.47444 43.7028 7.13015C43.5087 6.78586 43.1884 6.61372 42.742 6.61372C42.2956 6.61372 41.9656 6.64703 41.7521 6.71367C41.228 6.88026 40.8447 7.36338 40.602 8.16303C40.3594 8.95157 40.2381 10.251 40.2381 12.0613V21.9902C40.2381 24.1115 40.3837 25.6108 40.6748 26.4882C40.9757 27.3545 41.5386 27.7876 42.3635 27.7876C43.1884 27.7876 43.7368 27.3545 44.0085 26.4882C44.2802 25.6219 44.4161 24.0948 44.4161 21.9069V12.028ZM40.2381 6.63038C40.7525 5.231 41.7181 4.53131 43.135 4.53131C44.125 4.53131 44.8674 4.90892 45.3623 5.66414C45.867 6.40825 46.197 7.37449 46.3522 8.56285C46.5075 9.7401 46.5852 11.1617 46.5852 12.8276V21.7903C46.5852 21.8236 46.5852 21.8625 46.5852 21.9069C46.5852 25.05 46.2261 27.1879 45.5079 28.3207C44.7897 29.4425 43.8095 30.0033 42.5673 30.0033C42.0724 30.0033 41.6065 29.8034 41.1698 29.4036C40.7428 28.9927 40.4322 28.4929 40.2381 27.9043V34.1182H38.0691V4.71456H40.2381V6.63038Z" fill="white"/>
    <path d="M61.0378 5.01444L61.0524 5.69747C61.0524 6.89693 61.5958 9.02932 62.6828 12.0946C63.4301 11.0284 64.0027 9.98445 64.4006 8.96268C64.8082 7.92981 65.012 6.78032 65.012 5.51421C65.012 4.24811 64.8907 3.34851 64.648 2.81541C64.4054 2.27121 63.8328 1.99911 62.9303 1.99911C61.756 1.99911 61.1349 2.77099 61.0669 4.31475C61.0572 4.55908 61.0475 4.72012 61.0378 4.79787C61.0378 4.8645 61.0378 4.93669 61.0378 5.01444ZM67.2975 23.6228C68.6756 26.9325 69.5102 28.9593 69.8014 29.7035H67.9963C67.7439 29.0149 67.2296 27.7599 66.4532 25.9385C65.9679 27.1935 65.4681 28.0931 64.9538 28.6373C64.4394 29.1815 63.925 29.548 63.4107 29.7368C62.906 29.9367 62.3237 30.0366 61.6638 30.0366C60.3439 30.0366 59.2763 29.5147 58.4611 28.4707C57.6459 27.4267 57.2383 25.994 57.2383 24.1726C57.2383 22.3512 57.3984 21.0018 57.7187 20.1244C58.0487 19.247 58.3592 18.4751 58.6504 17.8087C58.9415 17.1424 59.8441 15.8319 61.3581 13.8772C59.7373 9.72345 58.927 6.98578 58.927 5.66415C58.927 1.89916 60.3148 0.0166626 63.0904 0.0166626C64.7111 0.0166626 65.7738 0.505334 66.2785 1.48267C66.7928 2.46002 67.05 3.82608 67.05 5.58085C67.05 7.33563 66.7104 8.86828 66.031 10.1788C65.3614 11.4782 64.517 12.8498 63.498 14.2936C64.1871 16.1151 65.1139 18.4029 66.2785 21.1573C67.0646 19.2692 67.9283 17.6921 68.8697 16.426L69.8742 18.2086C69.0007 19.4525 68.1418 21.2572 67.2975 23.6228ZM65.3759 23.4396C63.959 20.1744 62.9157 17.7255 62.2461 16.0928C61.4309 17.3367 60.7612 18.5973 60.2371 19.8745C59.7131 21.1517 59.4462 22.6122 59.4365 24.2559C59.4365 26.7215 60.2663 27.9542 61.9258 27.9542C62.8381 27.9542 63.6048 27.3434 64.2259 26.1217C64.5364 25.4887 64.9198 24.5946 65.3759 23.4396Z" fill="white"/>
    <path d="M90.2807 0.383179H92.7118V29.7035H90.7466V17.1424L91.0814 5.33098L87.4275 29.0704H85.3603L81.5754 5.33098L81.9102 17.1424V29.7035H79.9304V0.383179H82.3615L86.3939 25.0055L90.2807 0.383179Z" fill="white"/>
    <path d="M98.8899 4.71457H101.074V29.7035H98.8899V4.71457ZM98.8899 0.0166626H101.059V2.41559H98.8899V0.0166626Z" fill="white"/>
    <path d="M109.421 7.16345C109.615 6.41934 110.042 5.77518 110.702 5.23098C111.372 4.67567 112.158 4.39801 113.06 4.39801C113.963 4.39801 114.705 4.8256 115.288 5.68078C115.87 6.53595 116.161 7.81872 116.161 9.52907V29.7035H113.992V9.32916C113.992 8.36292 113.798 7.66878 113.41 7.24675C113.031 6.81361 112.522 6.59704 111.881 6.59704C110.241 6.59704 109.421 7.5244 109.421 9.37913V29.7035H107.252V4.71454H109.421V7.16345Z" fill="white"/>
    <path d="M128.089 12.4278C128.089 10.2843 127.944 8.78498 127.653 7.92981C127.371 7.06353 126.818 6.63039 125.993 6.63039C125.168 6.63039 124.615 7.07463 124.334 7.96313C124.052 8.84051 123.911 10.3676 123.911 12.5444V22.44C123.911 24.7279 124.067 26.1939 124.377 26.8381C124.697 27.4822 125.168 27.8043 125.789 27.8043C126.41 27.8043 126.852 27.6766 127.114 27.4211C127.386 27.1546 127.614 26.7159 127.798 26.1051C127.992 25.4831 128.089 24.2725 128.089 22.4733V12.4278ZM128.075 0H130.258V29.7035H128.075V27.8043C127.57 29.1926 126.604 29.8867 125.178 29.8867C123.557 29.8756 122.528 28.7705 122.092 26.5715C121.849 25.3609 121.728 23.7339 121.728 21.6904V12.9109C121.728 9.55686 122.077 7.30231 122.776 6.14727C123.484 4.99222 124.479 4.4147 125.76 4.4147C126.255 4.4147 126.711 4.62017 127.129 5.0311C127.556 5.43092 127.871 5.91959 128.075 6.49711V0Z" fill="white"/>
    <path d="M153.384 8.01443L159.709 15.252C160.097 15.6962 160.097 16.4162 159.709 16.8604L153.384 24.0979C152.996 24.5421 152.367 24.5421 151.979 24.0979C151.591 23.6538 151.591 22.9337 151.979 22.4896L156.607 17.1935H139.13V14.9189H156.607L151.979 9.62278C151.591 9.17865 151.591 8.45857 151.979 8.01443C152.367 7.5703 152.996 7.5703 153.384 8.01443Z" fill="#EFC224"/>
    <path d="M3.97516 14.9189H0V17.1934H3.97516V14.9189Z" fill="#EFC224"/>
</svg>
