<svg xmlns="http://www.w3.org/2000/svg" >
    <symbol id="facebook" viewBox="0 0 9 13">
        <path d="M9 0H7C4 0 3 1 3 3v2H0v2h3v6h3V7h3V5H6V3h3V0z"/>
    </symbol>
    <symbol id="twitter" viewBox="0 0 20 13">
        <path d="M20 1.5l-2.4.6c1-.5 1.5-1 1.8-1.9-.8.4-1.6.7-2.6.8-.8-.7-1.8-1-3-1-1 0-2 .3-2.9 1a2.9 2.9 0 00-1 3C8.1 4 6.5 3.6 5 3 3.7 2.4 2.4 1.6 1.4.6a2.7 2.7 0 000 3.2c.3.5.7.9 1.3 1.2C2 5 1.4 4.8.8 4.6c0 .8.3 1.5 1 2.1.6.6 1.4 1 2.3 1.1a5.3 5.3 0 01-1.9 0c.3.7.8 1.3 1.5 1.7.7.4 1.5.7 2.4.7A9.4 9.4 0 010 11.5a14.7 14.7 0 0010.4 1A11.3 11.3 0 0016 8.7a7.6 7.6 0 002-5.6c.7-.4 1.4-1 2-1.7z"/>
    </symbol>
    <symbol id="youtube" viewBox="0 0 23 13">
        <path d="M22.1 1.1C21.3.3 19.7 0 16.8 0H6.2C3.2 0 1.6.3.8 1.2 0 2 0 3.2 0 4.9v3.2C0 11.3 1 13 6.2 13h10.6c2.6 0 4-.3 4.9-1 .9-.7 1.3-1.9 1.3-3.9V4.9c0-1.8 0-3-.9-3.8zM14.8 7L9.9 9a.9.9 0 01-.7 0C9 9 9 8.6 9 8.4v-4c0-.2 0-.4.3-.5h.7l4.9 2c.2 0 .4.3.4.5s-.2.4-.4.5z"/>
    </symbol>
    <symbol id="vk" viewBox="0 0 24 13">
        <path d="M23.9 11.7l-.1-.1A12 12 0 0021.4 9a14 14 0 01-1-1c-.3-.4-.4-.7-.2-1a89 89 0 002-2.6c1.3-1.8 2-3 1.8-3.5h-.1c0-.2-.2-.2-.4-.3a2 2 0 00-.8 0h-3.6-.4l-.1.1-.2.2V1a19 19 0 01-3 4.7c0 .2-.3.3-.4.4-.1.1-.2.2-.3.1h-.2a.8.8 0 01-.3-.3l-.2-.5a4.8 4.8 0 010-1A16.9 16.9 0 0014 3a165.9 165.9 0 010-2.4l-.3-.3-.5-.1-1.7-.2C10 0 9 0 8.5.3l-.4.3c-.2.2-.2.3 0 .3l1 .5v.2l.2.5.1.9a8.8 8.8 0 01-.2 3l-.2.3a1 1 0 01-.4 0h-.4a3 3 0 01-.5-.6 14 14 0 01-1.3-2l-.2-.3A29 29 0 014.8.8L4.4.5H.8C.5.6.2.6.1.8l-.1.3v.3a38.3 38.3 0 005.8 9l.3.2.9.7 1.3.8a7.2 7.2 0 003.4.8h1.5c.3 0 .5 0 .6-.2h.1v-.3l.1-.3.1-1 .2-.6a1.5 1.5 0 01.5-.5h.1c.2-.1.4 0 .7.2l.8.6a21.5 21.5 0 001.7 1.7l.3.2.6.2H23l.7-.1.4-.3V12l-.1-.4z"/>
    </symbol>
</svg>
